<svg version="1.1" xmlns="http://www.w3.org/2000/svg" xmlns:xlink="http://www.w3.org/1999/xlink" x="0px" y="0px"
	 width="292.795px" height="233.495px" viewBox="0 0 292.795 233.495" enable-background="new 0 0 292.795 233.495"
	 xml:space="preserve">
<g>
	<path fill-rule="evenodd" clip-rule="evenodd" fill="none" stroke="#FFFFFF" stroke-width="0.9266" stroke-miterlimit="10" d="
		M7.678,0.463h277.484c4.709,0,7.169,3.376,7.169,7.468v194.657c0,4.092-2.46,7.279-7.169,7.279H7.678
		c-4.956,0-7.215-3.187-7.215-7.279V7.931C0.463,3.839,2.474,0.463,7.678,0.463z"/>
	<polygon fill="none" stroke="#FFFFFF" stroke-width="0.9266" stroke-miterlimit="10" points="178.63,233.031 114.209,233.031 
		117.769,214.5 175.072,214.5 			"/>
	
		<rect x="14.731" y="14.412" fill-rule="evenodd" clip-rule="evenodd" fill="none" stroke="#FFFFFF" stroke-width="0.9266" stroke-miterlimit="10" width="263.379" height="157.395"/>
	<path fill-rule="evenodd" clip-rule="evenodd" fill="#B3B3B3" d="M146.42,5.895c0.511,0,0.926,0.415,0.926,0.926
		c0,0.512-0.415,0.926-0.926,0.926c-0.511,0-0.926-0.415-0.926-0.926C145.494,6.309,145.909,5.895,146.42,5.895z"/>
	<path fill-rule="evenodd" clip-rule="evenodd" fill="#FFFFFF" d="M146.42,186.237c2.795,0,5.063,2.295,5.063,5.125
		c0,2.83-2.267,5.124-5.063,5.124c-2.797,0-5.063-2.294-5.063-5.124C141.357,188.532,143.624,186.237,146.42,186.237z"/>
</g>
</svg>
