<svg xmlns="http://www.w3.org/2000/svg" viewBox="0 0 332.26 132.44"><defs><style>.cls-1{fill:#fff;}</style></defs><g id="Artwork"><path class="cls-1" d="M25.51,129.11a22.7,22.7,0,0,1-8.85-1.71,24.15,24.15,0,0,1-7.44-4.88l.94-.94a23.22,23.22,0,0,0,7.06,4.71,21.45,21.45,0,0,0,8.41,1.64,17.56,17.56,0,0,0,5.24-.73,12.54,12.54,0,0,0,4-2,8.8,8.8,0,0,0,2.52-3.09,8.6,8.6,0,0,0,.89-3.85v-.12a8.49,8.49,0,0,0-.65-3.38,6.84,6.84,0,0,0-2.18-2.68A15,15,0,0,0,31.31,110a55.18,55.18,0,0,0-6.5-1.73,44.92,44.92,0,0,1-6.5-1.74A16.25,16.25,0,0,1,14,104.23a8.1,8.1,0,0,1-2.44-3,9.2,9.2,0,0,1-.76-3.86v-.11a8.62,8.62,0,0,1,1-4.09,10.48,10.48,0,0,1,2.79-3.36,13.74,13.74,0,0,1,4.24-2.26,16.69,16.69,0,0,1,5.38-.82,22.75,22.75,0,0,1,14,4.7l-.82,1.06a25.09,25.09,0,0,0-6.12-3.32A20.05,20.05,0,0,0,24,87.93a14.92,14.92,0,0,0-4.91.77,12.08,12.08,0,0,0-3.79,2.06,9.19,9.19,0,0,0-2.45,3,7.69,7.69,0,0,0-.85,3.5v.11a8.29,8.29,0,0,0,.65,3.36,6.49,6.49,0,0,0,2.2,2.61A15.88,15.88,0,0,0,19,105.37a45.27,45.27,0,0,0,6.36,1.68,46.4,46.4,0,0,1,6.73,1.85,16.3,16.3,0,0,1,4.41,2.36,7.65,7.65,0,0,1,2.39,3,9.66,9.66,0,0,1,.7,3.79v.12a9.64,9.64,0,0,1-1,4.29,10.11,10.11,0,0,1-2.79,3.47,13.9,13.9,0,0,1-4.45,2.33A18.74,18.74,0,0,1,25.51,129.11Z"/><path class="cls-1" d="M49.52,87.34h1.3v41.18h-1.3Z"/><path class="cls-1" d="M63.69,87.34H64.8L96,126.4V87.34h1.3v41.18H96.22L65,89.46v39.06H63.69Z"/><path class="cls-1" d="M128.09,129.23a19.09,19.09,0,0,1-8-1.68,20.12,20.12,0,0,1-6.38-4.56,20.56,20.56,0,0,1-4.21-6.73,22.45,22.45,0,0,1-1.5-8.21v-.12a22.4,22.4,0,0,1,1.5-8.2A21,21,0,0,1,113.68,93a20.19,20.19,0,0,1,6.41-4.62,19.3,19.3,0,0,1,8.12-1.7,24.67,24.67,0,0,1,5.18.5,18.8,18.8,0,0,1,4.14,1.38,18.35,18.35,0,0,1,3.39,2.09c1,.8,2,1.66,2.94,2.56l-.89.88a34,34,0,0,0-2.67-2.29,18.34,18.34,0,0,0-3.21-2,18.89,18.89,0,0,0-4-1.42,21.52,21.52,0,0,0-5-.53,17.7,17.7,0,0,0-7.59,1.62,18.5,18.5,0,0,0-6,4.39,20.34,20.34,0,0,0-3.91,6.38,20.93,20.93,0,0,0-1.41,7.67V108a20.79,20.79,0,0,0,1.44,7.71,20.44,20.44,0,0,0,3.94,6.38,18.84,18.84,0,0,0,6,4.35,17.56,17.56,0,0,0,7.53,1.62,18.6,18.6,0,0,0,4.71-.56,21.11,21.11,0,0,0,4-1.47,19.19,19.19,0,0,0,3.45-2.12,22.13,22.13,0,0,0,2.79-2.55l.94.88a25.92,25.92,0,0,1-3,2.67,21.14,21.14,0,0,1-8,3.77A21.65,21.65,0,0,1,128.09,129.23Z"/><path class="cls-1" d="M152.41,87.34h28.77v1.18H153.71v18.71h24.94v1.17H153.71v18.95h27.76v1.17H152.41Z"/><path class="cls-1" d="M211.83,88.52,204.12,92l-.53-1.12L212,87.05h1.11v41.47h-1.29Z"/><path class="cls-1" d="M236.65,129.23a15.72,15.72,0,0,1-6.42-1.38,18.09,18.09,0,0,1-5.47-3.74l.88-.94a18.33,18.33,0,0,0,5.18,3.56,14,14,0,0,0,5.88,1.32,12.06,12.06,0,0,0,6.3-1.65,14.42,14.42,0,0,0,4.68-4.53,21.73,21.73,0,0,0,2.88-6.76,34.7,34.7,0,0,0,1-8.35v-.12c0-.67,0-1.49,0-2.47s-.05-1.83-.09-2.53a11.37,11.37,0,0,1-1.38,4.41,13,13,0,0,1-3,3.59,14.28,14.28,0,0,1-4.18,2.41,14.07,14.07,0,0,1-5,.88,16.63,16.63,0,0,1-5.68-.94,14.43,14.43,0,0,1-4.56-2.62,11.74,11.74,0,0,1-3-4,12.29,12.29,0,0,1-1.09-5.24V100a12.53,12.53,0,0,1,1.09-5.2,12.88,12.88,0,0,1,3-4.24,14.69,14.69,0,0,1,10-3.91,14.1,14.1,0,0,1,5.91,1.17,14.3,14.3,0,0,1,8,9.27,31.86,31.86,0,0,1,1.23,9.56v.12a34.76,34.76,0,0,1-1.09,8.94,22.31,22.31,0,0,1-3.17,7.12,15.59,15.59,0,0,1-5.09,4.7A13.54,13.54,0,0,1,236.65,129.23Zm1.29-17.47a12.87,12.87,0,0,0,4.82-.92,13.09,13.09,0,0,0,4-2.47,11.39,11.39,0,0,0,2.74-3.67,10.56,10.56,0,0,0,1-4.53v-.12a11.64,11.64,0,0,0-1-4.76,12.31,12.31,0,0,0-2.77-3.92,12.8,12.8,0,0,0-4.11-2.61,13.47,13.47,0,0,0-5.06-1,12.66,12.66,0,0,0-5,1,12.89,12.89,0,0,0-4.06,2.64,12.64,12.64,0,0,0-2.74,3.86,10.94,10.94,0,0,0-1,4.64v.12a11.13,11.13,0,0,0,1,4.79,10.84,10.84,0,0,0,2.77,3.68,12.71,12.71,0,0,0,4.14,2.38A15.35,15.35,0,0,0,237.94,111.76Z"/><path class="cls-1" d="M278.5,129.23a14.53,14.53,0,0,1-7.15-1.74,16.13,16.13,0,0,1-5.29-4.64,21.3,21.3,0,0,1-3.27-6.77,29.12,29.12,0,0,1-1.12-8.09v-.12a28.73,28.73,0,0,1,1.12-8.05,21.62,21.62,0,0,1,3.27-6.77,16.14,16.14,0,0,1,5.29-4.68,15.64,15.64,0,0,1,14.3,0A16.38,16.38,0,0,1,290.94,93a21.46,21.46,0,0,1,3.27,6.76,29.11,29.11,0,0,1,1.11,8.09V108a28.8,28.8,0,0,1-1.11,8.06,21.84,21.84,0,0,1-3.27,6.77,16.09,16.09,0,0,1-5.29,4.67A14.56,14.56,0,0,1,278.5,129.23Zm.06-1.18a13.05,13.05,0,0,0,6.59-1.65A15,15,0,0,0,290,122a20.75,20.75,0,0,0,3-6.38,27.71,27.71,0,0,0,1-7.56v-.12a27.82,27.82,0,0,0-1-7.56A20.84,20.84,0,0,0,290,94a15.52,15.52,0,0,0-4.91-4.47,13.93,13.93,0,0,0-13.21,0A15.13,15.13,0,0,0,267,93.87a20.36,20.36,0,0,0-3,6.39,27.33,27.33,0,0,0-1,7.56v.11a27.33,27.33,0,0,0,1,7.56,20.29,20.29,0,0,0,3,6.41,15.29,15.29,0,0,0,4.91,4.47A13,13,0,0,0,278.56,128.05Z"/><path class="cls-1" d="M315,129.23a17.46,17.46,0,0,1-8.56-2.06,19.6,19.6,0,0,1-6.21-5.3l1.06-.82a17.68,17.68,0,0,0,5.76,5,16.08,16.08,0,0,0,8,2,13.91,13.91,0,0,0,4.65-.76,12.56,12.56,0,0,0,3.8-2.09A10.07,10.07,0,0,0,326,122a8.63,8.63,0,0,0,1-4.09v-.11a9.2,9.2,0,0,0-1.11-4.65,8.88,8.88,0,0,0-3.15-3.18,15.27,15.27,0,0,0-4.82-1.82,30.46,30.46,0,0,0-6.21-.59H310.3l-.41-.82,16-18.24H302.42V87.34h25.17v1L311.71,106.4a30.7,30.7,0,0,1,6.88.71,16.74,16.74,0,0,1,5.24,2.09,9.34,9.34,0,0,1,3.32,3.53,10.46,10.46,0,0,1,1.15,5v.11a9.87,9.87,0,0,1-1.06,4.56,11.15,11.15,0,0,1-2.88,3.59,13.91,13.91,0,0,1-4.27,2.36A15.7,15.7,0,0,1,315,129.23Z"/><path class="cls-1" d="M18.65,73.39a9.22,9.22,0,0,1-3.49-.66,8.57,8.57,0,0,1-2.83-1.87,9,9,0,0,1-2.61-6.42v0a9,9,0,0,1,.69-3.52A8.85,8.85,0,0,1,12.32,58a8.66,8.66,0,0,1,2.88-1.92,9.45,9.45,0,0,1,3.65-.69,10.56,10.56,0,0,1,2.42.26,8.11,8.11,0,0,1,2,.74,7.92,7.92,0,0,1,1.64,1.15A9.92,9.92,0,0,1,26.19,59l-3.61,2.79A6.26,6.26,0,0,0,21,60.31a4.06,4.06,0,0,0-2.15-.54,3.82,3.82,0,0,0-1.67.36,3.89,3.89,0,0,0-1.3,1A4.49,4.49,0,0,0,15,62.56a5.05,5.05,0,0,0-.31,1.78v0A5.23,5.23,0,0,0,15,66.21a4.43,4.43,0,0,0,.85,1.47,4.06,4.06,0,0,0,1.3,1A3.82,3.82,0,0,0,18.8,69,4.69,4.69,0,0,0,20,68.87a3.86,3.86,0,0,0,1-.43,6,6,0,0,0,.86-.67,11.31,11.31,0,0,0,.81-.86l3.61,2.58A12.61,12.61,0,0,1,25,71a7.57,7.57,0,0,1-1.66,1.24,8.59,8.59,0,0,1-2.08.82A10.18,10.18,0,0,1,18.65,73.39Z"/><path class="cls-1" d="M34.36,55.61H39l7.37,17.44H41.21L40,70H33.27L32,73.05H27Zm4.2,10.64-1.93-4.93-2,4.93Z"/><path class="cls-1" d="M48,55.74h8.19a10.16,10.16,0,0,1,3.39.49,5.78,5.78,0,0,1,2.25,1.39,5.34,5.34,0,0,1,1.53,4v.05a5.45,5.45,0,0,1-1,3.31,6.15,6.15,0,0,1-2.6,2l4.13,6H58.42L54.93,67.8h-2.1v5.25H48ZM56,64a2.89,2.89,0,0,0,1.9-.55,1.84,1.84,0,0,0,.67-1.5v-.05a1.77,1.77,0,0,0-.69-1.54A3.18,3.18,0,0,0,56,59.89H52.83V64Z"/><path class="cls-1" d="M65.82,55.74h13.9v4.08H70.54v2.62h8.31v3.78H70.54V69h9.3v4.08h-14Z"/><path class="cls-1" d="M95.15,55.61h4.62l7.38,17.44H102L100.74,70H94.06l-1.24,3.09h-5Zm4.2,10.64-1.93-4.93-2,4.93Z"/><path class="cls-1" d="M108.83,55.74h4.48l7.14,9.15V55.74h4.73V73.05H121l-7.41-9.5v9.5h-4.72Z"/><path class="cls-1" d="M128.24,55.74h6.68a12.59,12.59,0,0,1,4.14.63,8.77,8.77,0,0,1,3.07,1.76,7.48,7.48,0,0,1,1.9,2.71,8.84,8.84,0,0,1,.66,3.45v0a8.85,8.85,0,0,1-.67,3.48,7.71,7.71,0,0,1-1.93,2.75,8.71,8.71,0,0,1-3.1,1.82,12.33,12.33,0,0,1-4.17.66h-6.58ZM135,68.79a5.18,5.18,0,0,0,3.48-1.13,4.08,4.08,0,0,0,1.31-3.24v0a4.08,4.08,0,0,0-1.31-3.23A5.09,5.09,0,0,0,135,60h-2v8.8Z"/><path class="cls-1" d="M162.35,73.39a9.22,9.22,0,0,1-3.49-.66A8.57,8.57,0,0,1,156,70.86a9,9,0,0,1-2.61-6.42v0a9,9,0,0,1,.69-3.52A8.85,8.85,0,0,1,156,58a8.66,8.66,0,0,1,2.88-1.92,9.45,9.45,0,0,1,3.65-.69,10.56,10.56,0,0,1,2.42.26,8.11,8.11,0,0,1,2,.74,7.59,7.59,0,0,1,1.63,1.15,9.44,9.44,0,0,1,1.3,1.46l-3.61,2.79a6.26,6.26,0,0,0-1.63-1.48,4.06,4.06,0,0,0-2.15-.54,3.82,3.82,0,0,0-1.67.36,3.89,3.89,0,0,0-1.3,1,4.49,4.49,0,0,0-.85,1.46,5.05,5.05,0,0,0-.31,1.78v0a5.23,5.23,0,0,0,.31,1.82,4.43,4.43,0,0,0,.85,1.47,4.06,4.06,0,0,0,1.3,1,3.82,3.82,0,0,0,1.67.36,4.69,4.69,0,0,0,1.22-.15,3.86,3.86,0,0,0,1-.43,6,6,0,0,0,.86-.67,11.31,11.31,0,0,0,.81-.86L170,69.49A13.51,13.51,0,0,1,168.67,71,7.57,7.57,0,0,1,167,72.28a8.59,8.59,0,0,1-2.08.82A10.18,10.18,0,0,1,162.35,73.39Z"/><path class="cls-1" d="M180.78,73.39a9.58,9.58,0,0,1-3.71-.7,9.18,9.18,0,0,1-2.95-1.92,8.91,8.91,0,0,1-1.94-2.84,8.7,8.7,0,0,1-.7-3.49v0A8.78,8.78,0,0,1,174.15,58a9.41,9.41,0,0,1,3-1.93,10.18,10.18,0,0,1,7.42,0A9.24,9.24,0,0,1,187.48,58a9,9,0,0,1,1.94,2.84,8.74,8.74,0,0,1,.7,3.49v0a8.78,8.78,0,0,1-2.67,6.37,9.3,9.3,0,0,1-3,1.93A9.65,9.65,0,0,1,180.78,73.39Zm0-4.32a4.43,4.43,0,0,0,1.81-.37,4.19,4.19,0,0,0,1.39-1,4.76,4.76,0,0,0,.9-1.47,5,5,0,0,0,.32-1.78v0a5.06,5.06,0,0,0-.32-1.78,4.79,4.79,0,0,0-.92-1.48,4.59,4.59,0,0,0-1.42-1,4.28,4.28,0,0,0-1.81-.38,4.15,4.15,0,0,0-1.79.37,4.27,4.27,0,0,0-1.39,1,4.41,4.41,0,0,0-.9,1.47,5.29,5.29,0,0,0-.31,1.78v0a4.81,4.81,0,0,0,.33,1.78,4.61,4.61,0,0,0,.9,1.49,4.32,4.32,0,0,0,1.4,1A4.17,4.17,0,0,0,180.81,69.07Z"/><path class="cls-1" d="M192.62,55.74h5.07l4.13,6.7,4.13-6.7H211V73.05h-4.77V63.11l-4.41,6.77h-.1l-4.39-6.72v9.89h-4.73Z"/><path class="cls-1" d="M214.09,55.74h7.42a10.21,10.21,0,0,1,3,.4,6.53,6.53,0,0,1,2.27,1.19,5.2,5.2,0,0,1,1.45,1.92,6.21,6.21,0,0,1,.51,2.57v0a6.16,6.16,0,0,1-.56,2.69,5.49,5.49,0,0,1-1.54,2,6.78,6.78,0,0,1-2.37,1.19,10.8,10.8,0,0,1-3,.39h-2.37v5h-4.8Zm7.08,8.6a3,3,0,0,0,2-.61,2,2,0,0,0,.73-1.65v0a2,2,0,0,0-.73-1.7,3.2,3.2,0,0,0-2-.59h-2.25v4.6Z"/><path class="cls-1" d="M236.72,55.61h4.63l7.37,17.44h-5.15L242.31,70h-6.68l-1.23,3.09h-5.05Zm4.21,10.64L239,61.32l-2,4.93Z"/><path class="cls-1" d="M257.2,73.35a13.42,13.42,0,0,1-4.41-.73,10.64,10.64,0,0,1-3.7-2.16l2.67-3.2a8.78,8.78,0,0,0,5.61,2.08,2.94,2.94,0,0,0,1.48-.31,1,1,0,0,0,.5-.88V68.1a1,1,0,0,0-.12-.48,1.25,1.25,0,0,0-.46-.4,4.5,4.5,0,0,0-.89-.39c-.37-.12-.85-.25-1.45-.38-.92-.21-1.78-.45-2.57-.7a8,8,0,0,1-2.06-1,4.55,4.55,0,0,1-1.39-1.51A4.46,4.46,0,0,1,249.9,61V61a5.38,5.38,0,0,1,.46-2.22A5,5,0,0,1,251.7,57a6.28,6.28,0,0,1,2.11-1.14,8.72,8.72,0,0,1,2.8-.41,12.51,12.51,0,0,1,4,.58,10.09,10.09,0,0,1,3.15,1.73l-2.4,3.4a9.76,9.76,0,0,0-2.43-1.27,7.39,7.39,0,0,0-2.42-.44,2.1,2.1,0,0,0-1.29.33.94.94,0,0,0-.44.79v0a1,1,0,0,0,.14.51,1.21,1.21,0,0,0,.47.41,5.28,5.28,0,0,0,.91.37,14.76,14.76,0,0,0,1.48.38,21.68,21.68,0,0,1,2.68.76,7.81,7.81,0,0,1,2,1.05,4.26,4.26,0,0,1,1.29,1.49,4.64,4.64,0,0,1,.44,2.09v0a5.32,5.32,0,0,1-.51,2.37,4.94,4.94,0,0,1-1.42,1.76,6.25,6.25,0,0,1-2.2,1.11A9.86,9.86,0,0,1,257.2,73.35Z"/><path class="cls-1" d="M273.33,73.35a13.52,13.52,0,0,1-4.42-.73,10.83,10.83,0,0,1-3.7-2.16l2.68-3.2a8.78,8.78,0,0,0,5.61,2.08A2.92,2.92,0,0,0,275,69a1,1,0,0,0,.51-.88V68.1a1,1,0,0,0-.12-.48,1.33,1.33,0,0,0-.46-.4,4.5,4.5,0,0,0-.89-.39c-.37-.12-.86-.25-1.45-.38-.92-.21-1.78-.45-2.57-.7a8.28,8.28,0,0,1-2.07-1,4.63,4.63,0,0,1-1.38-1.51A4.46,4.46,0,0,1,266,61V61a5.22,5.22,0,0,1,.46-2.22A5,5,0,0,1,267.82,57a6.33,6.33,0,0,1,2.12-1.14,8.66,8.66,0,0,1,2.79-.41,12.42,12.42,0,0,1,4,.58,10,10,0,0,1,3.16,1.73l-2.4,3.4A9.82,9.82,0,0,0,275,59.88a7.29,7.29,0,0,0-2.41-.44,2.13,2.13,0,0,0-1.3.33.93.93,0,0,0-.43.79v0a.87.87,0,0,0,.14.51,1.17,1.17,0,0,0,.46.41,5.43,5.43,0,0,0,.92.37c.39.13.88.25,1.47.38a21.86,21.86,0,0,1,2.69.76,8.14,8.14,0,0,1,2,1.05,4.13,4.13,0,0,1,1.28,1.49,4.51,4.51,0,0,1,.45,2.09v0a5.32,5.32,0,0,1-.51,2.37,5,5,0,0,1-1.42,1.76A6.33,6.33,0,0,1,276.2,73,9.91,9.91,0,0,1,273.33,73.35Z"/><path class="cls-1" d="M282.75,55.74h4.82V73.05h-4.82Z"/><path class="cls-1" d="M299.45,73.39a9.58,9.58,0,0,1-3.71-.7,9.18,9.18,0,0,1-2.95-1.92,8.91,8.91,0,0,1-1.94-2.84,8.7,8.7,0,0,1-.7-3.49v0A8.78,8.78,0,0,1,292.82,58a9.41,9.41,0,0,1,3-1.93,10.18,10.18,0,0,1,7.42,0A9.24,9.24,0,0,1,306.15,58a9,9,0,0,1,1.94,2.84,8.74,8.74,0,0,1,.7,3.49v0a8.78,8.78,0,0,1-2.67,6.37,9.3,9.3,0,0,1-3,1.93A9.65,9.65,0,0,1,299.45,73.39Zm0-4.32a4.43,4.43,0,0,0,1.81-.37,4.19,4.19,0,0,0,1.39-1,4.76,4.76,0,0,0,.9-1.47,5,5,0,0,0,.32-1.78v0a5.06,5.06,0,0,0-.32-1.78,4.79,4.79,0,0,0-.92-1.48,4.59,4.59,0,0,0-1.42-1,4.28,4.28,0,0,0-1.81-.38,4.15,4.15,0,0,0-1.79.37,4.27,4.27,0,0,0-1.39,1,4.41,4.41,0,0,0-.9,1.47,5.29,5.29,0,0,0-.31,1.78v0a4.81,4.81,0,0,0,.33,1.78,4.61,4.61,0,0,0,.9,1.49,4.32,4.32,0,0,0,1.4,1A4.17,4.17,0,0,0,299.48,69.07Z"/><path class="cls-1" d="M311.29,55.74h4.49l7.14,9.15V55.74h4.72V73.05h-4.21L316,63.55v9.5h-4.73Z"/><path class="cls-1" d="M23.36,39.67A16.66,16.66,0,0,1,17,38.45a15.57,15.57,0,0,1-5.08-3.31,15.38,15.38,0,0,1-3.36-4.91,15.16,15.16,0,0,1-1.22-6,15.35,15.35,0,0,1,1.22-6.13,15.13,15.13,0,0,1,3.4-5A16,16,0,0,1,17,9.77a16.66,16.66,0,0,1,6.4-1.22,16.58,16.58,0,0,1,6.4,1.22,15.72,15.72,0,0,1,5.09,3.31A15.24,15.24,0,0,1,38.28,18a15.08,15.08,0,0,1,1.22,6,15.35,15.35,0,0,1-1.22,6.13,15,15,0,0,1-3.4,5,15.9,15.9,0,0,1-5.12,3.33A16.62,16.62,0,0,1,23.36,39.67Zm.08-30.3a15.75,15.75,0,0,0-6.08,1.16,15.39,15.39,0,0,0-4.87,3.16A14.49,14.49,0,0,0,8.12,24.11a14.49,14.49,0,0,0,4.33,10.44,14.94,14.94,0,0,0,4.83,3.14,15.75,15.75,0,0,0,6.08,1.16,15.84,15.84,0,0,0,6.09-1.16,15.28,15.28,0,0,0,4.86-3.16,14.6,14.6,0,0,0,0-20.86,14.89,14.89,0,0,0-4.82-3.14A15.8,15.8,0,0,0,23.44,9.37Zm0,23a7.44,7.44,0,0,1-3.22-.69,7.82,7.82,0,0,1-2.49-1.82,8.36,8.36,0,0,1-1.6-2.63,8.66,8.66,0,0,1-.57-3.14,9,9,0,0,1,.55-3.22,7.77,7.77,0,0,1,1.58-2.61,7.58,7.58,0,0,1,2.47-1.78A7.87,7.87,0,0,1,30.69,21a8.66,8.66,0,0,1,.57,3.14,8.88,8.88,0,0,1-.57,3.23,8.17,8.17,0,0,1-1.58,2.6,7.44,7.44,0,0,1-2.47,1.79A7.73,7.73,0,0,1,23.42,32.39Zm-.08-15.73a6.72,6.72,0,0,0-2.85.58,6.94,6.94,0,0,0-2.21,1.59,7.06,7.06,0,0,0-1.42,2.34,8.27,8.27,0,0,0-.5,2.86A8.08,8.08,0,0,0,16.88,27a7.61,7.61,0,0,0,1.44,2.37A7.14,7.14,0,0,0,20.55,31a7.27,7.27,0,0,0,5.75,0,6.69,6.69,0,0,0,2.2-1.59A7.53,7.53,0,0,0,29.92,27a7.75,7.75,0,0,0,.52-2.85,7.88,7.88,0,0,0-.52-2.93,7.23,7.23,0,0,0-3.71-4A6.73,6.73,0,0,0,23.34,16.66Z"/><path class="cls-1" d="M56.41,39.63a19,19,0,0,1-5.75-.81A10.85,10.85,0,0,1,43.47,32a17.42,17.42,0,0,1-1-6.07V9.13h9.06v16.6a6.19,6.19,0,0,0,1.34,4.4,4.65,4.65,0,0,0,3.58,1.39,4.78,4.78,0,0,0,3.59-1.33,5.88,5.88,0,0,0,1.32-4.25V9.13h9.07V25.69a17.54,17.54,0,0,1-1,6.25,11,11,0,0,1-7.29,6.88A19.18,19.18,0,0,1,56.41,39.63ZM43.33,10V25.9a16.8,16.8,0,0,0,.91,5.79,10.37,10.37,0,0,0,2.58,4A10.61,10.61,0,0,0,50.91,38a19.94,19.94,0,0,0,11,0,10.63,10.63,0,0,0,4.13-2.34,10.52,10.52,0,0,0,2.64-4,16.54,16.54,0,0,0,1-5.95V10H62.23v16a6.63,6.63,0,0,1-1.57,4.83,5.62,5.62,0,0,1-4.17,1.58,5.53,5.53,0,0,1-4.18-1.65,7,7,0,0,1-1.56-5V10Z"/><path class="cls-1" d="M90.45,39.09h-8.9V17H72.81V9.13H99.19V17H90.45Zm-8.08-.82h7.25V16.21h8.74V10H73.63v6.25h8.74Z"/><path class="cls-1" d="M113.76,39.59a23.2,23.2,0,0,1-7.57-1.24,18.64,18.64,0,0,1-6.36-3.72l-.3-.27,5-6,.32.25a14.46,14.46,0,0,0,9.19,3.4,4.39,4.39,0,0,0,2.26-.46,1.2,1.2,0,0,0,.65-1.12,1.18,1.18,0,0,0-.15-.68,1.65,1.65,0,0,0-.62-.54,7.6,7.6,0,0,0-1.42-.61,22,22,0,0,0-2.39-.63c-1.56-.37-3-.77-4.37-1.2a13.66,13.66,0,0,1-3.58-1.71A7.94,7.94,0,0,1,102,22.4a8.06,8.06,0,0,1-.9-4,9.64,9.64,0,0,1,.8-4,8.74,8.74,0,0,1,2.36-3.09,11,11,0,0,1,3.7-2,15.38,15.38,0,0,1,4.83-.71,21.38,21.38,0,0,1,6.81,1,17.33,17.33,0,0,1,5.43,3l.3.24-4.5,6.37-.33-.24a16.67,16.67,0,0,0-4-2.09,12.21,12.21,0,0,0-3.92-.7,3.24,3.24,0,0,0-1.94.46,1.19,1.19,0,0,0-.56,1,1.29,1.29,0,0,0,.17.74,1.63,1.63,0,0,0,.64.54,8.53,8.53,0,0,0,1.46.59c.63.2,1.45.41,2.44.63a37.67,37.67,0,0,1,4.57,1.28,13.93,13.93,0,0,1,3.53,1.83,7.33,7.33,0,0,1,2.29,2.65,8.1,8.1,0,0,1,.8,3.7,9.54,9.54,0,0,1-.9,4.25A9,9,0,0,1,122.54,37a11.47,11.47,0,0,1-3.84,1.94A17.32,17.32,0,0,1,113.76,39.59Zm-13.08-5.32a17.64,17.64,0,0,0,5.78,3.3,22.35,22.35,0,0,0,7.3,1.2,16.83,16.83,0,0,0,4.71-.63,10.47,10.47,0,0,0,3.56-1.8,8.23,8.23,0,0,0,2.28-2.83,8.57,8.57,0,0,0,.81-3.81,7.38,7.38,0,0,0-.7-3.4,6.78,6.78,0,0,0-2-2.37,13.15,13.15,0,0,0-3.33-1.71A34.39,34.39,0,0,0,114.58,21c-1-.23-1.86-.45-2.51-.66a8.72,8.72,0,0,1-1.61-.65,2.47,2.47,0,0,1-.95-.83,2.09,2.09,0,0,1-.29-1.09,2,2,0,0,1,.9-1.74,4,4,0,0,1,2.43-.62,12.8,12.8,0,0,1,4.19.75,16.34,16.34,0,0,1,3.86,2L124.18,13a16.67,16.67,0,0,0-4.87-2.6,20.66,20.66,0,0,0-6.55-1,14.72,14.72,0,0,0-4.58.66A10.14,10.14,0,0,0,104.76,12a8,8,0,0,0-2.14,2.8,8.73,8.73,0,0,0-.73,3.57,7.32,7.32,0,0,0,.8,3.64,7.13,7.13,0,0,0,2.21,2.4A13.1,13.1,0,0,0,108.26,26c1.32.42,2.76.82,4.3,1.17a23.22,23.22,0,0,1,2.47.66,7.76,7.76,0,0,1,1.58.68,2.4,2.4,0,0,1,.91.83,1.94,1.94,0,0,1,.27,1,2.11,2.11,0,0,1-1.05,1.91,5.14,5.14,0,0,1-2.69.58,15.22,15.22,0,0,1-9.39-3.34Z"/><path class="cls-1" d="M145.05,39.09h-8.9V17h-8.74V9.13h26.38V17h-8.74ZM137,38.27h7.25V16.21H153V10H128.23v6.25H137Z"/><path class="cls-1" d="M187.79,39.09h-9.55l-2.13-5.2H165.43l-2.08,5.2H154L166.71,8.92H175Zm-9-.82h7.76L174.5,9.75h-7.24L155.2,38.27h7.59l2.08-5.21h11.8Zm-4.13-10.63h-7.74l3.9-9.81Zm-6.53-.82h5.33l-2.65-6.75Z"/><path class="cls-1" d="M217.92,39.09h-7.7l-11.86-15.2v15.2h-8.77v-30h8.16l11.4,14.62V9.13h8.77Zm-7.3-.82h6.48V10H210V26.14L197.35,10h-6.94V38.27h7.13V21.5Z"/><path class="cls-1" d="M233.74,39.09H222.26v-30h11.65a21.65,21.65,0,0,1,7.1,1.09,15.12,15.12,0,0,1,5.31,3.06,13.06,13.06,0,0,1,3.3,4.7,15.29,15.29,0,0,1,1.14,6A15.52,15.52,0,0,1,249.6,30a13.63,13.63,0,0,1-3.34,4.79A15.61,15.61,0,0,1,240.89,38,21.24,21.24,0,0,1,233.74,39.09Zm-10.66-.82h10.66a20.74,20.74,0,0,0,6.88-1.08,14.87,14.87,0,0,0,5.08-3,12.75,12.75,0,0,0,3.14-4.49,14.57,14.57,0,0,0,1.1-5.69,14.7,14.7,0,0,0-1.08-5.73,12.23,12.23,0,0,0-3.1-4.41,14.29,14.29,0,0,0-5-2.9,21.09,21.09,0,0,0-6.83-1H223.08Zm11-6.34h-3.71V16.29H234a9,9,0,0,1,6.12,2,7.23,7.23,0,0,1,2.36,5.74,7.3,7.3,0,0,1-2.36,5.85A9.08,9.08,0,0,1,234,31.93Zm-2.88-.82H234a8.24,8.24,0,0,0,5.58-1.82,6.43,6.43,0,0,0,2.07-5.14,6.5,6.5,0,0,0-2.07-5.2A8.2,8.2,0,0,0,234,17.11h-2.88Z"/><path class="cls-1" d="M263.2,39.09h-8.94v-30h8.94Zm-8.11-.82h7.29V10h-7.29Z"/><path class="cls-1" d="M296,39.09h-7.7l-11.86-15.2v15.2h-8.77v-30h8.16l11.4,14.62V9.13H296Zm-7.3-.82h6.48V10h-7.13V26.14L275.47,10h-6.94V38.27h7.13V21.5Z"/><path class="cls-1" d="M315.65,39.67a18.08,18.08,0,0,1-6.46-1.13A15.66,15.66,0,0,1,304,35.36a14.87,14.87,0,0,1-3.42-4.9,15.66,15.66,0,0,1-1.24-6.27,15.48,15.48,0,0,1,4.55-11.13A15.24,15.24,0,0,1,309,9.75a16.89,16.89,0,0,1,6.41-1.2,18.53,18.53,0,0,1,6.83,1.15,19,19,0,0,1,5.26,3.19l.3.27-5.26,6.33-.32-.27a12.86,12.86,0,0,0-3.12-2,9.21,9.21,0,0,0-3.65-.68,6.51,6.51,0,0,0-2.76.59,6.85,6.85,0,0,0-2.22,1.61,7.61,7.61,0,0,0-1.5,2.41,7.93,7.93,0,0,0-.56,3,8.55,8.55,0,0,0,.56,3.18,7,7,0,0,0,1.55,2.42,7.34,7.34,0,0,0,2.38,1.58,7.75,7.75,0,0,0,3,.57,8.28,8.28,0,0,0,4.27-1V28h-5.74V21.24h14.22V35l-.15.12a21.55,21.55,0,0,1-5.6,3.27A19.24,19.24,0,0,1,315.65,39.67Zm-.21-30.3a16.32,16.32,0,0,0-6.11,1.14,14.5,14.5,0,0,0-4.82,3.13,14.71,14.71,0,0,0-4.31,10.47,15,15,0,0,0,1.17,6,14.07,14.07,0,0,0,3.24,4.63,14.63,14.63,0,0,0,4.88,3,17.07,17.07,0,0,0,6.16,1.08,18.62,18.62,0,0,0,7-1.26,21.15,21.15,0,0,0,5.24-3V22.07H315.31v5.08h5.74v4.17l-.18.13A8.87,8.87,0,0,1,316,32.72a8.62,8.62,0,0,1-3.35-.63A8.2,8.2,0,0,1,310,30.33a7.8,7.8,0,0,1-1.74-2.7,9.2,9.2,0,0,1-.61-3.39,8.76,8.76,0,0,1,2.27-6,8.06,8.06,0,0,1,2.48-1.8,7.35,7.35,0,0,1,3.11-.66,10,10,0,0,1,4,.74,13.39,13.39,0,0,1,3,1.84l4.22-5.07A18.13,18.13,0,0,0,322,10.47,17.57,17.57,0,0,0,315.44,9.37Z"/></g></svg>