<svg version="1.1" id="Layer_1" xmlns="http://www.w3.org/2000/svg" xmlns:xlink="http://www.w3.org/1999/xlink" x="0px" y="0px"
	 width="583.813px" height="141px" viewBox="0 0 583.813 141" enable-background="new 0 0 583.813 141" xml:space="preserve">
<g>
	<path fill="none" stroke="#FFFFFF" stroke-width="1.5448" stroke-miterlimit="10" d="M1,1.195h29.837
		c10.796,0,16.321,6.886,16.321,14.451c0,7.141-4.42,11.901-9.775,13.006c6.035,0.935,10.881,6.8,10.881,13.941
		c0,8.5-5.695,15.301-16.491,15.301H1V1.195z M28.202,23.978c4.08,0,6.63-2.635,6.63-6.291c0-3.485-2.55-6.206-6.63-6.206H13.07
		v12.496H28.202z M28.627,47.609c4.59,0,7.311-2.635,7.311-6.716c0-3.57-2.55-6.63-7.311-6.63H13.07v13.346H28.627z"/>
	<path fill="none" stroke="#FFFFFF" stroke-width="1.5448" stroke-miterlimit="10" d="M76.676,37.579h-8.84v20.316H55.765v-56.7
		h26.522c11.815,0,19.041,7.736,19.041,18.277c0,10.031-6.29,15.386-12.41,16.831l12.75,21.592H87.812L76.676,37.579z
		 M80.502,11.566H67.836v15.641h12.666c4.846,0,8.5-3.06,8.5-7.82C89.002,14.626,85.348,11.566,80.502,11.566z"/>
	<path fill="none" stroke="#FFFFFF" stroke-width="1.5448" stroke-miterlimit="10" d="M108.489,1.195h12.071v56.7h-12.071V1.195z"/>
	<path fill="none" stroke="#FFFFFF" stroke-width="1.5448" stroke-miterlimit="10" d="M130.078,1.195h22.357
		c17.766,0,30.092,11.306,30.092,28.393s-12.326,28.307-30.092,28.307h-22.357V1.195z M152.436,47.269
		c11.221,0,17.766-8.076,17.766-17.681c0-10.031-6.12-17.767-17.766-17.767h-10.286v35.448H152.436z"/>
	<path fill="none" stroke="#FFFFFF" stroke-width="1.5448" stroke-miterlimit="10" d="M216.286,0.26
		c11.731,0,19.126,5.696,23.462,12.411l-10.031,5.44c-2.635-3.995-7.48-7.141-13.431-7.141c-10.286,0-17.767,7.906-17.767,18.617
		s7.48,18.616,17.767,18.616c5.186,0,9.776-2.125,12.241-4.335v-6.886h-15.131V26.613h27.031v21.676
		C234.647,54.75,226.572,59,216.286,59c-16.576,0-30.178-11.561-30.178-29.412C186.108,11.651,199.71,0.26,216.286,0.26z"/>
	<path fill="none" stroke="#FFFFFF" stroke-width="1.5448" stroke-miterlimit="10" d="M248.685,1.195h40.123v10.371h-28.052v12.326
		h27.457v10.371h-27.457v13.176h28.052v10.456h-40.123V1.195z"/>
	<path fill="#FFFFFF" d="M1,83.195h12.07v46.074h23.973v10.626H1V83.195z"/>
	<path fill="#FFFFFF" d="M81.226,130.119H55.894l-3.57,9.776H39.062l21.932-56.7h15.131l21.847,56.7H84.796L81.226,130.119z
		 M59.123,119.664H77.91L68.56,93.651L59.123,119.664z"/>
	<path fill="#FFFFFF" d="M122.201,119.579h-8.84v20.316H101.29v-56.7h26.522c11.815,0,19.041,7.736,19.041,18.277
		c0,10.031-6.29,15.386-12.41,16.831l12.75,21.592h-13.855L122.201,119.579z M126.027,93.566h-12.666v15.641h12.666
		c4.846,0,8.5-3.06,8.5-7.82C134.527,96.626,130.873,93.566,126.027,93.566z"/>
	<path fill="#FFFFFF" d="M180.52,82.26c11.731,0,19.127,5.696,23.462,12.411l-10.03,5.44c-2.636-3.995-7.48-7.141-13.432-7.141
		c-10.285,0-17.766,7.906-17.766,18.617s7.48,18.616,17.766,18.616c5.186,0,9.775-2.125,12.241-4.335v-6.886H177.63v-10.371h27.032
		v21.676C198.881,136.75,190.806,141,180.52,141c-16.576,0-30.178-11.561-30.178-29.412C150.342,93.651,163.943,82.26,180.52,82.26z
		"/>
	<path fill="#FFFFFF" d="M212.918,83.195h40.123v10.371h-28.052v12.326h27.457v10.371h-27.457v13.176h28.052v10.456h-40.123V83.195z
		"/>
	<path fill="#FFFFFF" d="M318.66,130.119h-25.332l-3.57,9.776h-13.261l21.932-56.7h15.132l21.846,56.7H322.23L318.66,130.119z
		 M296.559,119.664h18.787l-9.352-26.012L296.559,119.664z"/>
	<path fill="#FFFFFF" d="M350.796,101.812v38.083h-12.071v-56.7h12.412l26.267,36.723V83.195h12.071v56.7h-11.646L350.796,101.812z"
		/>
	<path fill="#FFFFFF" d="M399.125,83.195h12.071v56.7h-12.071V83.195z"/>
	<path fill="#FFFFFF" d="M470.018,99.092l-15.98,40.803h-5.271l-15.981-40.803v40.803h-12.071v-56.7h16.917l13.771,35.363
		l13.771-35.363h17.001v56.7h-12.156V99.092z"/>
	<path fill="#FFFFFF" d="M527.706,130.119h-25.332l-3.57,9.776h-13.261l21.932-56.7h15.131l21.847,56.7h-13.176L527.706,130.119z
		 M505.604,119.664h18.786l-9.351-26.012L505.604,119.664z"/>
	<path fill="#FFFFFF" d="M547.771,83.195h12.071v46.074h23.972v10.626h-36.043V83.195z"/>
</g>
</svg>
