<svg version="1.1" xmlns="http://www.w3.org/2000/svg" xmlns:xlink="http://www.w3.org/1999/xlink" x="0px" y="0px"
	 width="20.209px" height="20.377px" viewBox="0 0 20.209 20.377" enable-background="new 0 0 20.209 20.377" xml:space="preserve">
<g>
	<path fill="#FFFFFF" d="M0.824,6.377h4v14h-4V6.377z M2.441,0c1.346,0,2.439,1.094,2.439,2.44c0,1.348-1.094,2.441-2.439,2.441
		C1.092,4.881,0,3.788,0,2.44C0,1.094,1.092,0,2.441,0"/>
	<path fill="#FFFFFF" d="M6.824,6.377h4v2h0.456c0.562-1,1.691-2.064,3.739-2.084c5.07-0.048,5.806,3.067,4.806,6.556v7.528h-4
		v-6.686c0-1.571,0.328-3.591-1.83-3.591c-2.19,0-2.17,1.711-2.17,3.478v6.799h-5V6.377z"/>
</g>
</svg>
