<svg version="1.1" xmlns="http://www.w3.org/2000/svg" xmlns:xlink="http://www.w3.org/1999/xlink" x="0px" y="0px"
	 width="139.592px" height="95.439px" viewBox="0 0 139.592 95.439" enable-background="new 0 0 139.592 95.439"
	 xml:space="preserve">
<g>
	<path fill="#21CCC7" d="M111.981,45.528c-6.346-17.102-20.477-30.321-39.296-34.222c-26.55-5.507-53.774,9.323-66.392,34.222
		H0.934C14.419,11.909,49.362-5.84,85.869,1.731c25.172,5.22,44.008,22.342,51.634,43.797H111.981z"/>
	<path fill="#FFFFFF" d="M0.105,53.978h11.292c1.384,0,2.57,0.167,3.555,0.503c0.986,0.337,1.804,0.831,2.453,1.481
		c0.44,0.442,0.787,0.956,1.039,1.544c0.251,0.589,0.377,1.262,0.377,2.017v0.063c0,1.281-0.319,2.316-0.956,3.103
		c-0.637,0.788-1.448,1.391-2.43,1.812c1.348,0.441,2.418,1.076,3.208,1.905c0.79,0.83,1.185,1.991,1.185,3.481v0.063
		c0,1.911-0.73,3.403-2.19,4.475c-1.46,1.072-3.513,1.606-6.159,1.606H0.105V53.978z M9.904,62.768
		c0.945,0,1.664-0.158,2.158-0.474c0.494-0.315,0.74-0.797,0.74-1.449v-0.063c0-0.609-0.231-1.077-0.693-1.403
		c-0.462-0.325-1.155-0.488-2.079-0.488h-3.97v3.876H9.904z M10.787,71.116c0.945,0,1.669-0.173,2.173-0.52
		c0.505-0.346,0.756-0.845,0.756-1.495v-0.064c0-0.609-0.241-1.092-0.724-1.449c-0.483-0.358-1.239-0.536-2.269-0.536H6.061v4.064
		H10.787z"/>
	<path fill="#FFFFFF" d="M26.325,53.978h10.429c1.701,0,3.14,0.209,4.316,0.63c1.176,0.421,2.131,1.008,2.869,1.765
		c1.301,1.261,1.952,2.972,1.952,5.136v0.063c0,1.7-0.409,3.109-1.228,4.222c-0.819,1.114-1.921,1.964-3.308,2.551l5.262,7.688
		h-7.058l-4.442-6.678h-0.063h-2.615v6.678h-6.113V53.978z M36.471,64.563c1.05,0,1.859-0.237,2.426-0.708
		c0.567-0.474,0.851-1.109,0.851-1.908v-0.062c0-0.881-0.294-1.539-0.882-1.969c-0.588-0.429-1.397-0.646-2.426-0.646h-4.001v5.293
		H36.471z"/>
	<rect x="52.674" y="53.978" fill="#FFFFFF" width="6.144" height="22.054"/>
	<path fill="#FFFFFF" d="M66.49,53.978h8.508c1.973,0,3.733,0.267,5.277,0.802c1.544,0.536,2.846,1.287,3.907,2.253
		c1.061,0.967,1.869,2.116,2.426,3.449c0.557,1.333,0.835,2.8,0.835,4.396v0.063c0,1.596-0.283,3.071-0.851,4.427
		c-0.567,1.353-1.386,2.526-2.458,3.512c-1.071,0.988-2.39,1.76-3.954,2.316c-1.566,0.556-3.335,0.834-5.309,0.834H66.49V53.978z
		 M75.101,70.612c1.834,0,3.309-0.483,4.426-1.449c1.118-0.966,1.677-2.342,1.677-4.128v-0.063c0-1.765-0.559-3.134-1.677-4.111
		c-1.117-0.977-2.592-1.464-4.426-1.464h-2.498v11.215H75.101z"/>
	<path fill="#FFFFFF" d="M104.992,76.473c-1.723,0-3.314-0.279-4.774-0.835c-1.46-0.556-2.725-1.339-3.797-2.347
		c-1.072-1.009-1.912-2.211-2.52-3.609c-0.61-1.396-0.913-2.935-0.913-4.615v-0.063c0-1.596,0.298-3.093,0.894-4.489
		c0.596-1.397,1.416-2.615,2.461-3.655c1.045-1.041,2.296-1.854,3.753-2.444c1.458-0.587,3.038-0.881,4.739-0.881
		c1.954,0,3.639,0.283,5.057,0.851c1.417,0.567,2.715,1.356,3.891,2.362l-3.592,4.318c-0.798-0.673-1.612-1.186-2.442-1.544
		c-0.83-0.357-1.79-0.536-2.883-0.536c-0.799,0-1.539,0.158-2.221,0.474c-0.683,0.314-1.276,0.745-1.78,1.291
		c-0.504,0.547-0.903,1.188-1.197,1.923c-0.294,0.735-0.441,1.524-0.441,2.362v0.063c0,0.883,0.148,1.701,0.442,2.458
		c0.296,0.756,0.712,1.402,1.249,1.937c0.537,0.536,1.169,0.956,1.897,1.26c0.726,0.305,1.532,0.457,2.418,0.457
		c1.432,0,2.612-0.305,3.54-0.913v-2.679h-4.348v-4.475h10.145v9.925c-1.176,0.966-2.563,1.775-4.16,2.427
		C108.815,76.146,107.007,76.473,104.992,76.473"/>
	<polygon fill="#FFFFFF" points="121.728,53.978 139.434,53.978 139.434,59.176 127.745,59.176 127.745,62.515 138.333,62.515 
		138.333,67.336 127.745,67.336 127.745,70.833 139.592,70.833 139.592,76.031 121.728,76.031 		"/>
	<polygon fill="#FFFFFF" points="0,87.719 0.956,87.719 3.654,94.256 6.365,87.719 7.286,87.719 4.022,95.362 3.265,95.362 		"/>
	<polygon fill="#FFFFFF" points="10.317,87.719 15.801,87.719 15.801,88.49 11.173,88.49 11.173,91.102 15.313,91.102 
		15.313,91.872 11.173,91.872 11.173,94.539 15.857,94.539 15.857,95.309 10.317,95.309 		"/>
	<polygon fill="#FFFFFF" points="21.252,88.511 18.702,88.511 18.702,87.719 24.655,87.719 24.655,88.511 22.108,88.511 
		22.108,95.309 21.252,95.309 		"/>
	<polygon fill="#FFFFFF" points="27.752,87.719 33.237,87.719 33.237,88.49 28.608,88.49 28.608,91.102 32.75,91.102 32.75,91.872 
		28.608,91.872 28.608,94.539 33.289,94.539 33.289,95.309 27.752,95.309 		"/>
	<path fill="#FFFFFF" d="M36.496,87.719h3.263c0.471,0,0.888,0.067,1.251,0.2c0.367,0.135,0.668,0.321,0.906,0.559
		c0.188,0.188,0.332,0.408,0.434,0.661c0.103,0.253,0.152,0.531,0.152,0.834v0.023c0,0.316-0.049,0.601-0.152,0.85
		c-0.102,0.25-0.244,0.466-0.428,0.65c-0.183,0.184-0.403,0.336-0.657,0.456c-0.251,0.119-0.525,0.204-0.821,0.254l2.33,3.101
		h-1.052L39.52,92.36h-0.019h-2.147v2.949h-0.858V87.719z M39.69,91.589c0.282,0,0.542-0.035,0.782-0.107
		c0.24-0.073,0.446-0.176,0.62-0.31c0.173-0.134,0.31-0.297,0.408-0.488c0.097-0.193,0.146-0.41,0.146-0.656v-0.022
		c0-0.47-0.17-0.835-0.511-1.1c-0.339-0.264-0.818-0.396-1.433-0.396h-2.347v3.078H39.69z"/>
	<rect x="45.991" y="87.719" fill="#FFFFFF" width="0.858" height="7.589"/>
	<polygon fill="#FFFFFF" points="50.696,87.719 51.499,87.719 56.278,93.801 56.278,87.719 57.114,87.719 57.114,95.309 
		56.43,95.309 51.529,89.085 51.529,95.309 50.696,95.309 		"/>
	<path fill="#FFFFFF" d="M63.608,87.666h0.802l3.46,7.642h-0.921l-0.89-2.005h-4.129l-0.901,2.005h-0.879L63.608,87.666z
		 M65.723,92.533l-1.726-3.87l-1.734,3.87H65.723z"/>
	<path fill="#FFFFFF" d="M70.907,87.719h3.262c0.47,0,0.887,0.067,1.254,0.2c0.362,0.135,0.666,0.321,0.904,0.559
		c0.188,0.188,0.333,0.408,0.434,0.661c0.101,0.253,0.151,0.531,0.151,0.834v0.023c0,0.316-0.051,0.601-0.151,0.85
		c-0.101,0.25-0.244,0.466-0.429,0.65c-0.183,0.184-0.404,0.336-0.656,0.456c-0.253,0.119-0.527,0.204-0.824,0.254l2.331,3.101
		h-1.052l-2.203-2.949h-0.02h-2.146v2.949h-0.856V87.719z M74.101,91.589c0.281,0,0.542-0.035,0.781-0.107
		c0.239-0.073,0.447-0.176,0.62-0.31c0.173-0.134,0.308-0.297,0.408-0.488c0.096-0.193,0.146-0.41,0.146-0.656v-0.022
		c0-0.47-0.172-0.835-0.51-1.1c-0.34-0.264-0.817-0.396-1.434-0.396h-2.349v3.078H74.101z"/>
	<polygon fill="#FFFFFF" points="82.421,92.304 79.266,87.719 80.307,87.719 82.861,91.515 85.437,87.719 86.433,87.719 
		83.276,92.295 83.276,95.309 82.421,95.309 		"/>
	<path fill="#FFFFFF" d="M97.631,95.439c-0.55,0-1.057-0.102-1.519-0.303c-0.462-0.204-0.864-0.479-1.203-0.83
		c-0.339-0.351-0.606-0.766-0.797-1.242c-0.192-0.478-0.287-0.987-0.287-1.528v-0.022c0-0.535,0.095-1.041,0.287-1.517
		c0.191-0.479,0.458-0.895,0.797-1.253c0.339-0.358,0.744-0.641,1.214-0.847c0.47-0.205,0.984-0.309,1.542-0.309
		c0.348,0,0.659,0.029,0.936,0.087c0.278,0.057,0.537,0.138,0.774,0.243c0.24,0.105,0.46,0.232,0.662,0.381
		c0.202,0.148,0.397,0.312,0.585,0.493l-0.585,0.628c-0.325-0.303-0.673-0.552-1.045-0.748c-0.373-0.195-0.82-0.292-1.339-0.292
		c-0.419,0-0.809,0.079-1.167,0.239c-0.357,0.158-0.667,0.38-0.932,0.661c-0.264,0.282-0.469,0.612-0.618,0.991
		c-0.149,0.381-0.222,0.786-0.222,1.219v0.023c0,0.44,0.073,0.851,0.222,1.229c0.149,0.379,0.354,0.71,0.618,0.992
		c0.265,0.282,0.575,0.504,0.932,0.667c0.358,0.162,0.748,0.244,1.167,0.244c0.518,0,0.966-0.095,1.343-0.288
		c0.375-0.19,0.745-0.46,1.105-0.807l0.565,0.553c-0.195,0.202-0.399,0.385-0.616,0.547c-0.212,0.162-0.441,0.301-0.686,0.417
		c-0.247,0.116-0.511,0.206-0.791,0.272C98.291,95.405,97.978,95.439,97.631,95.439"/>
	<polygon fill="#FFFFFF" points="103.763,87.719 104.619,87.719 104.619,94.517 108.893,94.517 108.893,95.309 103.763,95.309 		
		"/>
	<rect x="112.003" y="87.719" fill="#FFFFFF" width="0.856" height="7.589"/>
	<polygon fill="#FFFFFF" points="116.71,87.719 117.511,87.719 122.292,93.801 122.292,87.719 123.126,87.719 123.126,95.309 
		122.444,95.309 117.544,89.085 117.544,95.309 116.71,95.309 		"/>
	<rect x="126.98" y="87.719" fill="#FFFFFF" width="0.855" height="7.589"/>
	<path fill="#FFFFFF" d="M135.122,95.439c-0.549,0-1.055-0.102-1.517-0.303c-0.464-0.204-0.866-0.479-1.204-0.83
		c-0.342-0.351-0.606-0.766-0.796-1.242c-0.193-0.478-0.29-0.987-0.29-1.528v-0.022c0-0.535,0.097-1.041,0.29-1.517
		c0.19-0.479,0.454-0.895,0.796-1.253c0.337-0.358,0.744-0.641,1.215-0.847c0.47-0.205,0.982-0.309,1.538-0.309
		c0.347,0,0.66,0.029,0.938,0.087c0.28,0.057,0.538,0.138,0.777,0.243c0.237,0.105,0.458,0.232,0.66,0.381
		c0.202,0.148,0.397,0.312,0.585,0.493l-0.585,0.628c-0.325-0.303-0.674-0.552-1.047-0.748c-0.372-0.195-0.819-0.292-1.338-0.292
		c-0.419,0-0.807,0.079-1.165,0.239c-0.358,0.158-0.67,0.38-0.931,0.661c-0.266,0.282-0.47,0.612-0.619,0.991
		c-0.149,0.381-0.222,0.786-0.222,1.219v0.023c0,0.44,0.073,0.851,0.222,1.229c0.149,0.379,0.353,0.71,0.619,0.992
		c0.261,0.282,0.574,0.504,0.931,0.667c0.358,0.162,0.746,0.244,1.165,0.244c0.519,0,0.969-0.095,1.346-0.288
		c0.375-0.19,0.742-0.46,1.104-0.807l0.563,0.553c-0.194,0.202-0.399,0.385-0.612,0.547c-0.213,0.162-0.442,0.301-0.689,0.417
		c-0.246,0.116-0.509,0.206-0.788,0.272C135.783,95.405,135.471,95.439,135.122,95.439"/>
</g>
</svg>
