<svg version="1.1" xmlns="http://www.w3.org/2000/svg" xmlns:xlink="http://www.w3.org/1999/xlink" x="0px" y="0px"
	 width="60.927px" height="127.927px" viewBox="0 0 60.927 127.927" enable-background="new 0 0 60.927 127.927"
	 xml:space="preserve">
<g>
	<path fill-rule="evenodd" clip-rule="evenodd" fill="none" stroke="#FFFFFF" stroke-width="0.9266" stroke-miterlimit="10" d="
		M8.485,0.463h43.713c5.083,0,8.265,3.103,8.265,7.52V119.13c0,4.417-3.182,8.333-8.265,8.333H8.485
		c-5.349,0-8.022-3.916-8.022-8.333V7.983C0.463,3.566,2.87,0.463,8.485,0.463z"/>
	<path fill-rule="evenodd" clip-rule="evenodd" fill="#FFFFFF" d="M30.275,5.051c0.552,0,0.999,0.447,0.999,1
		c0,0.552-0.447,0.999-0.999,0.999c-0.552,0-1-0.447-1-0.999C29.276,5.498,29.723,5.051,30.275,5.051z"/>
	<path fill-rule="evenodd" clip-rule="evenodd" fill="#FFFFFF" d="M22.345,10.249c0.368,0,0.667,0.298,0.667,0.666
		c0,0.369-0.299,0.667-0.667,0.667c-0.368,0-0.667-0.298-0.667-0.667C21.679,10.547,21.978,10.249,22.345,10.249z"/>
	<path fill-rule="evenodd" clip-rule="evenodd" fill="#FFFFFF" d="M25.544,10.463h9.329c0.295,0,0.533,0.206,0.533,0.5
		c0,0.294-0.239,0.5-0.533,0.5h-9.329c-0.294,0-0.533-0.206-0.533-0.5C25.011,10.669,25.25,10.463,25.544,10.463z"/>
	<path fill-rule="evenodd" clip-rule="evenodd" fill="none" stroke="#FFFFFF" stroke-width="0.9266" stroke-miterlimit="10" d="
		M4.421,19.578h51.842v91.423H4.421V19.578z"/>
	<path fill-rule="evenodd" clip-rule="evenodd" fill="#FFFFFF" d="M30.475,113.399c3.018,0,5.464,2.477,5.464,5.531
		c0,3.055-2.446,5.531-5.464,5.531c-3.018,0-5.464-2.476-5.464-5.531C25.011,115.876,27.457,113.399,30.475,113.399z"/>
	<path fill-rule="evenodd" clip-rule="evenodd" fill="none" stroke="#4E2B46" stroke-miterlimit="10" d="M31.042,117.109
		c0.442,0,0.8,0.358,0.8,0.8v2.401c0,0.442-0.358,0.8-0.8,0.8h-1.399c-0.442,0-0.8-0.358-0.8-0.8v-2.401
		c0-0.442,0.358-0.8,0.8-0.8H31.042z"/>
</g>
</svg>
