<svg version="1.1" xmlns="http://www.w3.org/2000/svg" xmlns:xlink="http://www.w3.org/1999/xlink" x="0px" y="0px" width="41.76px"
	 height="34.584px" viewBox="0 0 41.76 34.584" enable-background="new 0 0 41.76 34.584" xml:space="preserve">
<g>
	<path fill="#808080" d="M23.17,20.871c0-6.195,1.347-10.894,4.038-14.093S34.139,1.323,39.929,0l1.831,5.331
		c-3.864,1.426-6.58,3.178-8.154,5.257c-1.575,2.083-2.261,4.749-2.054,7.997h5.637v15.999H23.17V20.871z"/>
	<path fill="#808080" d="M0,20.871C0,14.676,1.331,9.977,3.992,6.778S10.861,1.323,16.606,0l1.827,5.331
		c-3.852,1.426-6.555,3.178-8.113,5.257c-1.554,2.083-2.232,4.749-2.033,7.997h5.427v15.999H0V20.871z"/>
</g>
</svg>
