<svg version="1.1" id="Layer_1" xmlns="http://www.w3.org/2000/svg" xmlns:xlink="http://www.w3.org/1999/xlink" x="0px" y="0px"
	 width="587px" height="141px" viewBox="0 0 587 141" enable-background="new 0 0 587 141" xml:space="preserve">
<g>
	<path fill="none" stroke="#FFFFFF" stroke-width="1.5448" stroke-miterlimit="10" d="M4.311,1.315h29.837
		c10.796,0,16.321,6.886,16.321,14.451c0,7.141-4.42,11.901-9.775,13.006c6.035,0.935,10.881,6.8,10.881,13.941
		c0,8.5-5.696,15.301-16.492,15.301H4.311V1.315z M31.513,24.098c4.081,0,6.63-2.635,6.63-6.291c0-3.485-2.55-6.206-6.63-6.206
		H16.382v12.496H31.513z M31.939,47.729c4.59,0,7.311-2.635,7.311-6.716c0-3.57-2.55-6.63-7.311-6.63H16.382v13.346H31.939z"/>
	<path fill="none" stroke="#FFFFFF" stroke-width="1.5448" stroke-miterlimit="10" d="M79.988,37.699h-8.84v20.316H59.076v-56.7
		h26.522c11.816,0,19.042,7.736,19.042,18.277c0,10.031-6.291,15.386-12.411,16.831l12.751,21.592H91.124L79.988,37.699z
		 M83.813,11.687H71.147v15.641h12.666c4.845,0,8.5-3.06,8.5-7.82C92.314,14.747,88.658,11.687,83.813,11.687z"/>
	<path fill="none" stroke="#FFFFFF" stroke-width="1.5448" stroke-miterlimit="10" d="M111.801,1.315h12.071v56.7h-12.071V1.315z"/>
	<path fill="none" stroke="#FFFFFF" stroke-width="1.5448" stroke-miterlimit="10" d="M133.39,1.315h22.356
		c17.767,0,30.093,11.306,30.093,28.393s-12.326,28.307-30.093,28.307H133.39V1.315z M155.746,47.389
		c11.221,0,17.767-8.076,17.767-17.681c0-10.031-6.121-17.767-17.767-17.767h-10.286v35.448H155.746z"/>
	<path fill="none" stroke="#FFFFFF" stroke-width="1.5448" stroke-miterlimit="10" d="M219.598,0.38
		c11.73,0,19.126,5.696,23.462,12.411l-10.031,5.44c-2.635-3.995-7.48-7.141-13.431-7.141c-10.286,0-17.767,7.906-17.767,18.617
		s7.48,18.616,17.767,18.616c5.185,0,9.775-2.125,12.241-4.335v-6.886h-15.131V26.733h27.032v21.676
		c-5.78,6.461-13.856,10.711-24.142,10.711c-16.577,0-30.178-11.561-30.178-29.412C189.42,11.771,203.021,0.38,219.598,0.38z"/>
	<path fill="none" stroke="#FFFFFF" stroke-width="1.5448" stroke-miterlimit="10" d="M251.996,1.315h40.123v10.371h-28.052v12.326
		h27.458v10.371h-27.458v13.176h28.052v10.456h-40.123V1.315z"/>
	<path fill="#FFFFFF" d="M7.031,122.844c3.995,4.166,10.201,7.651,18.021,7.651c6.631,0,9.861-3.146,9.861-6.376
		c0-4.25-4.93-5.695-11.476-7.226c-9.266-2.125-21.167-4.675-21.167-17.341c0-9.436,8.161-17.086,21.506-17.086
		c9.011,0,16.492,2.72,22.102,7.905l-6.715,8.841c-4.591-4.25-10.711-6.206-16.236-6.206c-5.44,0-8.331,2.38-8.331,5.781
		c0,3.825,4.761,5.015,11.306,6.545c9.351,2.125,21.251,4.93,21.251,17.511c0,10.371-7.396,18.191-22.696,18.191
		c-10.881,0-18.702-3.655-23.972-9.011L7.031,122.844z"/>
	<path fill="#FFFFFF" d="M102.872,99.212l-15.981,40.803H81.62L65.639,99.212v40.803H53.568v-56.7h16.917l13.771,35.363
		l13.771-35.363h17.001v56.7h-12.156V99.212z"/>
	<path fill="#FFFFFF" d="M160.56,130.239h-25.332l-3.57,9.776h-13.261l21.932-56.7h15.131l21.847,56.7H164.13L160.56,130.239z
		 M138.458,119.784h18.787l-9.351-26.012L138.458,119.784z"/>
	<path fill="#FFFFFF" d="M180.625,83.315h12.071v46.074h23.972v10.626h-36.043V83.315z"/>
	<path fill="#FFFFFF" d="M221.357,83.315h12.071v46.074H257.4v10.626h-36.043V83.315z"/>
	<path fill="#FFFFFF" d="M321.998,130.239h-25.332l-3.57,9.776h-13.261l21.932-56.7h15.131l21.847,56.7h-13.176L321.998,130.239z
		 M299.897,119.784h18.787l-9.351-26.012L299.897,119.784z"/>
	<path fill="#FFFFFF" d="M354.135,101.932v38.083h-12.071v-56.7h12.411l26.267,36.723V83.315h12.071v56.7h-11.646L354.135,101.932z"
		/>
	<path fill="#FFFFFF" d="M402.463,83.315h12.071v56.7h-12.071V83.315z"/>
	<path fill="#FFFFFF" d="M473.356,99.212l-15.981,40.803h-5.271l-15.981-40.803v40.803h-12.071v-56.7h16.917l13.771,35.363
		l13.771-35.363h17.001v56.7h-12.156V99.212z"/>
	<path fill="#FFFFFF" d="M531.044,130.239h-25.332l-3.57,9.776h-13.261l21.932-56.7h15.131l21.847,56.7h-13.176L531.044,130.239z
		 M508.943,119.784h18.786l-9.351-26.012L508.943,119.784z"/>
	<path fill="#FFFFFF" d="M551.109,83.315h12.071v46.074h23.972v10.626h-36.043V83.315z"/>
</g>
</svg>
