<svg version="1.1" xmlns="http://www.w3.org/2000/svg" xmlns:xlink="http://www.w3.org/1999/xlink" x="0px" y="0px"
	 width="124.16px" height="162.149px" viewBox="0 0 124.16 162.149" enable-background="new 0 0 124.16 162.149"
	 xml:space="preserve">
<g id="Artwork">
	<g>
		<rect x="4.317" y="15.288" fill="none" stroke="#FFFFFF" stroke-width="0.9266" stroke-miterlimit="10" width="115.527" height="131.572"/>
		<path fill-rule="evenodd" clip-rule="evenodd" fill="none" stroke="#FFFFFF" stroke-width="0.9266" stroke-miterlimit="10" d="
			M7.728,0.463h108.505c4.71,0,7.463,2.922,7.463,7.426v146.436c0,3.68-2.754,7.36-7.463,7.36H7.728
			c-4.956,0-7.264-3.681-7.264-7.36V7.889C0.463,3.385,2.524,0.463,7.728,0.463z"/>
		<path fill-rule="evenodd" clip-rule="evenodd" fill="#B3B3B3" d="M62.331,4.936c0.511,0,0.926,0.415,0.926,0.926
			s-0.415,0.926-0.926,0.926c-0.511,0-0.926-0.415-0.926-0.926S61.82,4.936,62.331,4.936z"/>
		<path fill-rule="evenodd" clip-rule="evenodd" fill="#FFFFFF" d="M62.516,148.603c2.795,0,5.063,2.295,5.063,5.125
			c0,2.83-2.267,5.124-5.063,5.124c-2.797,0-5.063-2.294-5.063-5.124C57.453,150.898,59.72,148.603,62.516,148.603z"/>
		<path fill-rule="evenodd" clip-rule="evenodd" fill="none" stroke="#4E2B46" stroke-width="0.9266" stroke-miterlimit="10" d="
			M61.58,151.957h1.852c0.41,0,0.501,0.559,0.501,0.968v1.729c0,0.409-0.091,1.009-0.501,1.009H61.58
			c-0.41,0-0.427-0.6-0.427-1.009v-1.729C61.153,152.516,61.171,151.957,61.58,151.957z"/>
	</g>
</g>
</svg>
