<?xml version="1.0" encoding="utf-8"?>
<!-- Generator: Adobe Illustrator 17.0.2, SVG Export Plug-In . SVG Version: 6.00 Build 0)  -->
<!DOCTYPE svg PUBLIC "-//W3C//DTD SVG 1.1//EN" "http://www.w3.org/Graphics/SVG/1.1/DTD/svg11.dtd">
<svg version="1.1" xmlns="http://www.w3.org/2000/svg" xmlns:xlink="http://www.w3.org/1999/xlink" x="0px" y="0px" width="22.77px"
	 height="18.606px" viewBox="0 0 22.77 18.606" enable-background="new 0 0 22.77 18.606" xml:space="preserve">
<g id="Rollovers">
</g>
<g id="Artwork">
	<g>
		<path fill="#FFFFFF" d="M22.77,2.25c-0.353,0.579-0.811,1.07-1.288,1.545c-0.271,0.268-0.563,0.514-0.871,0.739
			C20.513,4.605,20.475,4.677,20.48,4.8c0.052,1.7-0.21,3.353-0.794,4.947c-1.172,3.206-3.194,5.703-6.217,7.341
			c-1.403,0.761-2.911,1.209-4.494,1.403c-2.888,0.356-5.623-0.113-8.193-1.493C0.514,16.855,0.258,16.695,0,16.519
			c2.519,0.221,4.789-0.406,6.845-1.946c-2.152-0.19-3.589-1.277-4.375-3.294c0.711,0.12,1.372,0.122,2.029-0.07
			c-1.375-0.361-2.42-1.149-3.1-2.394C1.022,8.119,0.846,7.367,0.854,6.541c0.653,0.336,1.317,0.541,2.081,0.579
			C2.657,6.906,2.424,6.714,2.216,6.496C1.482,5.727,1.047,4.82,0.924,3.76C0.811,2.798,0.987,1.892,1.425,1.033
			C1.52,0.845,1.52,0.847,1.651,1c1.973,2.312,4.438,3.812,7.406,4.479c0.631,0.143,1.273,0.216,1.918,0.275
			c0.163,0.015,0.211-0.008,0.178-0.196c-0.243-1.422,0.07-2.713,0.984-3.835c0.782-0.962,1.798-1.535,3.035-1.683
			c1.518-0.181,2.832,0.266,3.925,1.338c0.097,0.095,0.191,0.083,0.296,0.06c0.922-0.205,1.794-0.543,2.618-1.007
			c0.033-0.018,0.065-0.038,0.1-0.055c0.01-0.005,0.023-0.002,0.062-0.005c-0.358,1.087-1.032,1.911-2.003,2.555
			c0.849-0.108,1.626-0.315,2.38-0.619c0.068-0.028,0.133-0.077,0.215-0.06L22.77,2.25z"/>
	</g>
</g>
<g id="Grid" display="none">
	<g display="inline">
		<g opacity="0.11">
			<rect x="13.369" y="-859.199" fill="#C40051" width="70.103" height="7280.457"/>
		</g>
		<g>
		</g>
	</g>
</g>
<g id="Mind_the_gaps" display="none">
</g>
</svg>
